<?xml version="1.0" standalone="no"?>
<!DOCTYPE svg PUBLIC "-//W3C//DTD SVG 20010904//EN"
 "http://www.w3.org/TR/2001/REC-SVG-20010904/DTD/svg10.dtd">
<svg version="1.0" xmlns="http://www.w3.org/2000/svg"
 width="907.000000pt" height="907.000000pt" viewBox="0 0 907.000000 907.000000"
 preserveAspectRatio="xMidYMid meet">
<metadata>
Created by potrace 1.14, written by Peter Selinger 2001-2017
</metadata>
<g transform="translate(0.000000,907.000000) scale(0.100000,-0.100000)"
fill="#000000" stroke="none">
<path d="M4419 8216 c-2 -2 -44 -7 -94 -10 -49 -4 -115 -11 -145 -16 -30 -5
-73 -11 -95 -14 -22 -3 -51 -8 -65 -11 -14 -2 -50 -10 -80 -15 -30 -6 -107
-24 -172 -41 -1070 -272 -1959 -1053 -2368 -2080 -38 -93 -115 -320 -125 -365
-2 -10 -15 -65 -29 -122 -25 -99 -29 -117 -41 -192 -3 -19 -7 -46 -10 -60 -3
-14 -7 -47 -11 -75 -3 -27 -8 -57 -9 -66 -20 -104 -27 -567 -12 -724 8 -80 25
-213 32 -250 8 -42 25 -131 29 -155 2 -14 12 -54 21 -90 8 -36 17 -72 19 -80
58 -241 201 -593 341 -835 52 -91 171 -279 195 -308 5 -7 43 -55 83 -108 149
-193 329 -382 502 -524 26 -22 53 -45 59 -50 15 -15 191 -144 246 -182 396
-269 937 -483 1390 -548 47 -7 105 -15 135 -20 169 -26 688 -26 835 -1 14 3
48 7 75 11 194 24 611 130 730 185 11 5 72 30 135 56 169 70 478 232 488 256
2 5 10 8 17 8 8 0 20 6 27 13 7 6 33 25 58 41 44 28 180 125 190 136 3 3 28
23 55 45 574 459 1003 1126 1185 1845 16 63 32 130 35 149 3 19 7 37 9 40 2 3
7 28 10 55 4 27 9 52 10 55 2 3 7 37 11 75 3 38 8 73 10 76 10 16 20 223 20
415 0 226 -8 358 -31 495 -3 19 -7 49 -9 65 -10 72 -62 304 -90 400 -82 284
-214 587 -361 830 -74 124 -105 170 -202 301 -160 217 -409 475 -602 624 -25
19 -47 37 -50 40 -12 13 -152 112 -245 172 -209 137 -468 265 -700 347 -175
62 -235 81 -385 116 -131 31 -120 29 -220 45 -41 6 -86 13 -100 16 -14 2 -50
7 -80 10 -30 3 -68 8 -85 11 -35 6 -530 14 -536 9z"/>
</g>
</svg>
